<mxfile host="app.diagrams.net" agent="Mozilla/5.0 (Windows NT 10.0; Win64; x64; rv:136.0) Gecko/20100101 Firefox/136.0" version="26.1.1">
  <diagram name="Page-1" id="e6el20dlanX2BAmVfcD5">
    <mxGraphModel dx="954" dy="567" grid="1" gridSize="10" guides="1" tooltips="1" connect="1" arrows="1" fold="1" page="1" pageScale="1" pageWidth="850" pageHeight="1100" math="0" shadow="0">
      <root>
        <mxCell id="0" />
        <mxCell id="1" parent="0" />
        <mxCell id="JSWtgp5aBdgA1HYlNqDZ-1" value="" style="verticalLabelPosition=bottom;shadow=0;dashed=0;align=center;html=1;verticalAlign=top;shape=mxgraph.electrical.abstract.dac;fontFamily=Modern;fontSource=https%3A%2F%2Fsourceforge.net%2Fprojects%2Fcm-unicode%2F;" parent="1" vertex="1">
          <mxGeometry x="330" y="280" width="40" height="30" as="geometry" />
        </mxCell>
        <mxCell id="JSWtgp5aBdgA1HYlNqDZ-11" style="edgeStyle=orthogonalEdgeStyle;rounded=0;orthogonalLoop=1;jettySize=auto;html=1;entryX=0.5;entryY=0;entryDx=0;entryDy=0;endArrow=none;startFill=0;fontFamily=Modern;fontSource=https%3A%2F%2Fsourceforge.net%2Fprojects%2Fcm-unicode%2F;" parent="1" source="JSWtgp5aBdgA1HYlNqDZ-2" target="JSWtgp5aBdgA1HYlNqDZ-5" edge="1">
          <mxGeometry relative="1" as="geometry">
            <Array as="points">
              <mxPoint x="425" y="295" />
            </Array>
          </mxGeometry>
        </mxCell>
        <mxCell id="JSWtgp5aBdgA1HYlNqDZ-2" value="&lt;font data-font-src=&quot;https://sourceforge.net/projects/cm-unicode/&quot;&gt;DAC&lt;/font&gt;" style="text;html=1;align=center;verticalAlign=middle;resizable=0;points=[];autosize=1;strokeColor=none;fillColor=none;fontFamily=Modern;fontSource=https%3A%2F%2Fsourceforge.net%2Fprojects%2Fcm-unicode%2F;" parent="1" vertex="1">
          <mxGeometry x="320" y="280" width="50" height="30" as="geometry" />
        </mxCell>
        <mxCell id="JSWtgp5aBdgA1HYlNqDZ-9" style="edgeStyle=orthogonalEdgeStyle;rounded=0;orthogonalLoop=1;jettySize=auto;html=1;entryX=0.5;entryY=1;entryDx=0;entryDy=0;endArrow=none;startFill=0;fontFamily=Modern;fontSource=https%3A%2F%2Fsourceforge.net%2Fprojects%2Fcm-unicode%2F;" parent="1" source="JSWtgp5aBdgA1HYlNqDZ-3" target="JSWtgp5aBdgA1HYlNqDZ-5" edge="1">
          <mxGeometry relative="1" as="geometry">
            <Array as="points">
              <mxPoint x="425" y="335" />
            </Array>
          </mxGeometry>
        </mxCell>
        <mxCell id="JSWtgp5aBdgA1HYlNqDZ-3" value="" style="verticalLabelPosition=bottom;shadow=0;dashed=0;align=center;html=1;verticalAlign=top;shape=mxgraph.electrical.abstract.dac;rotation=-180;fontFamily=Modern;fontSource=https%3A%2F%2Fsourceforge.net%2Fprojects%2Fcm-unicode%2F;" parent="1" vertex="1">
          <mxGeometry x="330" y="320" width="40" height="30" as="geometry" />
        </mxCell>
        <mxCell id="JSWtgp5aBdgA1HYlNqDZ-4" value="&lt;font&gt;ADC&lt;/font&gt;" style="text;html=1;align=center;verticalAlign=middle;resizable=0;points=[];autosize=1;strokeColor=none;fillColor=none;fontFamily=Modern;fontSource=https%3A%2F%2Fsourceforge.net%2Fprojects%2Fcm-unicode%2F;" parent="1" vertex="1">
          <mxGeometry x="330" y="320" width="50" height="30" as="geometry" />
        </mxCell>
        <mxCell id="JSWtgp5aBdgA1HYlNqDZ-45" style="edgeStyle=orthogonalEdgeStyle;rounded=0;orthogonalLoop=1;jettySize=auto;html=1;endArrow=none;startFill=0;fontFamily=Modern;fontSource=https%3A%2F%2Fsourceforge.net%2Fprojects%2Fcm-unicode%2F;" parent="1" source="JSWtgp5aBdgA1HYlNqDZ-5" edge="1">
          <mxGeometry relative="1" as="geometry">
            <mxPoint x="520" y="315" as="targetPoint" />
          </mxGeometry>
        </mxCell>
        <mxCell id="JSWtgp5aBdgA1HYlNqDZ-5" value="RF chain" style="rounded=1;whiteSpace=wrap;html=1;fontFamily=Modern;fontSource=https%3A%2F%2Fsourceforge.net%2Fprojects%2Fcm-unicode%2F;" parent="1" vertex="1">
          <mxGeometry x="390" y="302" width="70" height="26" as="geometry" />
        </mxCell>
        <mxCell id="JSWtgp5aBdgA1HYlNqDZ-12" value="" style="verticalLabelPosition=bottom;shadow=0;dashed=0;align=center;html=1;verticalAlign=top;shape=mxgraph.electrical.abstract.dac;fontFamily=Modern;fontSource=https%3A%2F%2Fsourceforge.net%2Fprojects%2Fcm-unicode%2F;" parent="1" vertex="1">
          <mxGeometry x="330" y="370" width="40" height="30" as="geometry" />
        </mxCell>
        <mxCell id="JSWtgp5aBdgA1HYlNqDZ-13" style="edgeStyle=orthogonalEdgeStyle;rounded=0;orthogonalLoop=1;jettySize=auto;html=1;entryX=0.5;entryY=0;entryDx=0;entryDy=0;endArrow=none;startFill=0;fontFamily=Modern;fontSource=https%3A%2F%2Fsourceforge.net%2Fprojects%2Fcm-unicode%2F;" parent="1" source="JSWtgp5aBdgA1HYlNqDZ-14" target="JSWtgp5aBdgA1HYlNqDZ-18" edge="1">
          <mxGeometry relative="1" as="geometry">
            <Array as="points">
              <mxPoint x="425" y="385" />
            </Array>
          </mxGeometry>
        </mxCell>
        <mxCell id="JSWtgp5aBdgA1HYlNqDZ-14" value="&lt;font data-font-src=&quot;https://sourceforge.net/projects/cm-unicode/&quot;&gt;DAC&lt;/font&gt;" style="text;html=1;align=center;verticalAlign=middle;resizable=0;points=[];autosize=1;strokeColor=none;fillColor=none;fontFamily=Modern;fontSource=https%3A%2F%2Fsourceforge.net%2Fprojects%2Fcm-unicode%2F;" parent="1" vertex="1">
          <mxGeometry x="320" y="370" width="50" height="30" as="geometry" />
        </mxCell>
        <mxCell id="JSWtgp5aBdgA1HYlNqDZ-15" style="edgeStyle=orthogonalEdgeStyle;rounded=0;orthogonalLoop=1;jettySize=auto;html=1;entryX=0.5;entryY=1;entryDx=0;entryDy=0;endArrow=none;startFill=0;fontFamily=Modern;fontSource=https%3A%2F%2Fsourceforge.net%2Fprojects%2Fcm-unicode%2F;" parent="1" source="JSWtgp5aBdgA1HYlNqDZ-16" target="JSWtgp5aBdgA1HYlNqDZ-18" edge="1">
          <mxGeometry relative="1" as="geometry">
            <Array as="points">
              <mxPoint x="425" y="425" />
            </Array>
          </mxGeometry>
        </mxCell>
        <mxCell id="JSWtgp5aBdgA1HYlNqDZ-16" value="" style="verticalLabelPosition=bottom;shadow=0;dashed=0;align=center;html=1;verticalAlign=top;shape=mxgraph.electrical.abstract.dac;rotation=-180;fontFamily=Modern;fontSource=https%3A%2F%2Fsourceforge.net%2Fprojects%2Fcm-unicode%2F;" parent="1" vertex="1">
          <mxGeometry x="330" y="410" width="40" height="30" as="geometry" />
        </mxCell>
        <mxCell id="JSWtgp5aBdgA1HYlNqDZ-17" value="&lt;font&gt;ADC&lt;/font&gt;" style="text;html=1;align=center;verticalAlign=middle;resizable=0;points=[];autosize=1;strokeColor=none;fillColor=none;fontFamily=Modern;fontSource=https%3A%2F%2Fsourceforge.net%2Fprojects%2Fcm-unicode%2F;" parent="1" vertex="1">
          <mxGeometry x="330" y="410" width="50" height="30" as="geometry" />
        </mxCell>
        <mxCell id="JSWtgp5aBdgA1HYlNqDZ-46" style="edgeStyle=orthogonalEdgeStyle;rounded=0;orthogonalLoop=1;jettySize=auto;html=1;endArrow=none;startFill=0;fontFamily=Modern;fontSource=https%3A%2F%2Fsourceforge.net%2Fprojects%2Fcm-unicode%2F;" parent="1" source="JSWtgp5aBdgA1HYlNqDZ-18" edge="1">
          <mxGeometry relative="1" as="geometry">
            <mxPoint x="520" y="405" as="targetPoint" />
          </mxGeometry>
        </mxCell>
        <mxCell id="JSWtgp5aBdgA1HYlNqDZ-18" value="RF chain" style="rounded=1;whiteSpace=wrap;html=1;fontFamily=Modern;fontSource=https%3A%2F%2Fsourceforge.net%2Fprojects%2Fcm-unicode%2F;" parent="1" vertex="1">
          <mxGeometry x="390" y="392" width="70" height="26" as="geometry" />
        </mxCell>
        <mxCell id="JSWtgp5aBdgA1HYlNqDZ-33" style="edgeStyle=orthogonalEdgeStyle;rounded=0;orthogonalLoop=1;jettySize=auto;html=1;entryX=0.5;entryY=0;entryDx=0;entryDy=0;endArrow=none;startFill=0;fontFamily=Modern;fontSource=https%3A%2F%2Fsourceforge.net%2Fprojects%2Fcm-unicode%2F;" parent="1" source="JSWtgp5aBdgA1HYlNqDZ-19" target="JSWtgp5aBdgA1HYlNqDZ-25" edge="1">
          <mxGeometry relative="1" as="geometry">
            <Array as="points">
              <mxPoint x="425" y="540" />
            </Array>
          </mxGeometry>
        </mxCell>
        <mxCell id="JSWtgp5aBdgA1HYlNqDZ-19" value="" style="verticalLabelPosition=bottom;shadow=0;dashed=0;align=center;html=1;verticalAlign=top;shape=mxgraph.electrical.abstract.dac;fontFamily=Modern;fontSource=https%3A%2F%2Fsourceforge.net%2Fprojects%2Fcm-unicode%2F;" parent="1" vertex="1">
          <mxGeometry x="330" y="525" width="40" height="30" as="geometry" />
        </mxCell>
        <mxCell id="JSWtgp5aBdgA1HYlNqDZ-22" style="edgeStyle=orthogonalEdgeStyle;rounded=0;orthogonalLoop=1;jettySize=auto;html=1;entryX=0.5;entryY=1;entryDx=0;entryDy=0;endArrow=none;startFill=0;fontFamily=Modern;fontSource=https%3A%2F%2Fsourceforge.net%2Fprojects%2Fcm-unicode%2F;" parent="1" source="JSWtgp5aBdgA1HYlNqDZ-23" target="JSWtgp5aBdgA1HYlNqDZ-25" edge="1">
          <mxGeometry relative="1" as="geometry">
            <Array as="points">
              <mxPoint x="425" y="580" />
            </Array>
          </mxGeometry>
        </mxCell>
        <mxCell id="JSWtgp5aBdgA1HYlNqDZ-23" value="" style="verticalLabelPosition=bottom;shadow=0;dashed=0;align=center;html=1;verticalAlign=top;shape=mxgraph.electrical.abstract.dac;rotation=-180;fontFamily=Modern;fontSource=https%3A%2F%2Fsourceforge.net%2Fprojects%2Fcm-unicode%2F;" parent="1" vertex="1">
          <mxGeometry x="330" y="565" width="40" height="30" as="geometry" />
        </mxCell>
        <mxCell id="JSWtgp5aBdgA1HYlNqDZ-24" value="&lt;font&gt;ADC&lt;/font&gt;" style="text;html=1;align=center;verticalAlign=middle;resizable=0;points=[];autosize=1;strokeColor=none;fillColor=none;fontFamily=Modern;fontSource=https%3A%2F%2Fsourceforge.net%2Fprojects%2Fcm-unicode%2F;" parent="1" vertex="1">
          <mxGeometry x="330" y="565" width="50" height="30" as="geometry" />
        </mxCell>
        <mxCell id="JSWtgp5aBdgA1HYlNqDZ-48" style="edgeStyle=orthogonalEdgeStyle;rounded=0;orthogonalLoop=1;jettySize=auto;html=1;endArrow=none;startFill=0;fontFamily=Modern;fontSource=https%3A%2F%2Fsourceforge.net%2Fprojects%2Fcm-unicode%2F;" parent="1" source="JSWtgp5aBdgA1HYlNqDZ-25" edge="1">
          <mxGeometry relative="1" as="geometry">
            <mxPoint x="520" y="560" as="targetPoint" />
          </mxGeometry>
        </mxCell>
        <mxCell id="JSWtgp5aBdgA1HYlNqDZ-25" value="RF chain" style="rounded=1;whiteSpace=wrap;html=1;fontFamily=Modern;fontSource=https%3A%2F%2Fsourceforge.net%2Fprojects%2Fcm-unicode%2F;" parent="1" vertex="1">
          <mxGeometry x="390" y="547" width="70" height="26" as="geometry" />
        </mxCell>
        <mxCell id="JSWtgp5aBdgA1HYlNqDZ-26" value="&lt;div&gt;Baseband Proceesing&lt;/div&gt;&lt;div&gt;&amp;amp;&lt;/div&gt;&lt;div&gt;Precoding/Combining&lt;/div&gt;" style="rounded=1;whiteSpace=wrap;html=1;fontFamily=Modern;fontSource=https%3A%2F%2Fsourceforge.net%2Fprojects%2Fcm-unicode%2F;" parent="1" vertex="1">
          <mxGeometry x="150" y="260" width="150" height="350" as="geometry" />
        </mxCell>
        <mxCell id="JSWtgp5aBdgA1HYlNqDZ-29" style="edgeStyle=orthogonalEdgeStyle;rounded=0;orthogonalLoop=1;jettySize=auto;html=1;entryX=1.001;entryY=0.914;entryDx=0;entryDy=0;entryPerimeter=0;fontFamily=Modern;fontSource=https%3A%2F%2Fsourceforge.net%2Fprojects%2Fcm-unicode%2F;" parent="1" source="JSWtgp5aBdgA1HYlNqDZ-24" target="JSWtgp5aBdgA1HYlNqDZ-26" edge="1">
          <mxGeometry relative="1" as="geometry" />
        </mxCell>
        <mxCell id="JSWtgp5aBdgA1HYlNqDZ-21" value="&lt;font data-font-src=&quot;https://sourceforge.net/projects/cm-unicode/&quot;&gt;DAC&lt;/font&gt;" style="text;html=1;align=center;verticalAlign=middle;resizable=0;points=[];autosize=1;strokeColor=none;fillColor=none;fontFamily=Modern;fontSource=https%3A%2F%2Fsourceforge.net%2Fprojects%2Fcm-unicode%2F;" parent="1" vertex="1">
          <mxGeometry x="320" y="525" width="50" height="30" as="geometry" />
        </mxCell>
        <mxCell id="JSWtgp5aBdgA1HYlNqDZ-35" style="edgeStyle=orthogonalEdgeStyle;rounded=0;orthogonalLoop=1;jettySize=auto;html=1;entryX=1.003;entryY=0.8;entryDx=0;entryDy=0;entryPerimeter=0;startArrow=classic;startFill=1;endArrow=none;fontFamily=Modern;fontSource=https%3A%2F%2Fsourceforge.net%2Fprojects%2Fcm-unicode%2F;" parent="1" source="JSWtgp5aBdgA1HYlNqDZ-19" target="JSWtgp5aBdgA1HYlNqDZ-26" edge="1">
          <mxGeometry relative="1" as="geometry" />
        </mxCell>
        <mxCell id="JSWtgp5aBdgA1HYlNqDZ-36" style="edgeStyle=orthogonalEdgeStyle;rounded=0;orthogonalLoop=1;jettySize=auto;html=1;entryX=1.002;entryY=0.471;entryDx=0;entryDy=0;entryPerimeter=0;fontFamily=Modern;fontSource=https%3A%2F%2Fsourceforge.net%2Fprojects%2Fcm-unicode%2F;" parent="1" source="JSWtgp5aBdgA1HYlNqDZ-16" target="JSWtgp5aBdgA1HYlNqDZ-26" edge="1">
          <mxGeometry relative="1" as="geometry" />
        </mxCell>
        <mxCell id="JSWtgp5aBdgA1HYlNqDZ-38" style="edgeStyle=orthogonalEdgeStyle;rounded=0;orthogonalLoop=1;jettySize=auto;html=1;entryX=1.003;entryY=0.357;entryDx=0;entryDy=0;entryPerimeter=0;endArrow=none;startFill=1;startArrow=classic;fontFamily=Modern;fontSource=https%3A%2F%2Fsourceforge.net%2Fprojects%2Fcm-unicode%2F;" parent="1" source="JSWtgp5aBdgA1HYlNqDZ-12" target="JSWtgp5aBdgA1HYlNqDZ-26" edge="1">
          <mxGeometry relative="1" as="geometry" />
        </mxCell>
        <mxCell id="JSWtgp5aBdgA1HYlNqDZ-39" style="edgeStyle=orthogonalEdgeStyle;rounded=0;orthogonalLoop=1;jettySize=auto;html=1;entryX=1.004;entryY=0.214;entryDx=0;entryDy=0;entryPerimeter=0;fontFamily=Modern;fontSource=https%3A%2F%2Fsourceforge.net%2Fprojects%2Fcm-unicode%2F;" parent="1" source="JSWtgp5aBdgA1HYlNqDZ-3" target="JSWtgp5aBdgA1HYlNqDZ-26" edge="1">
          <mxGeometry relative="1" as="geometry" />
        </mxCell>
        <mxCell id="JSWtgp5aBdgA1HYlNqDZ-40" style="edgeStyle=orthogonalEdgeStyle;rounded=0;orthogonalLoop=1;jettySize=auto;html=1;entryX=1.003;entryY=0.1;entryDx=0;entryDy=0;entryPerimeter=0;endArrow=none;startFill=1;startArrow=classic;fontFamily=Modern;fontSource=https%3A%2F%2Fsourceforge.net%2Fprojects%2Fcm-unicode%2F;" parent="1" source="JSWtgp5aBdgA1HYlNqDZ-1" target="JSWtgp5aBdgA1HYlNqDZ-26" edge="1">
          <mxGeometry relative="1" as="geometry" />
        </mxCell>
        <mxCell id="JSWtgp5aBdgA1HYlNqDZ-41" value="" style="shape=image;html=1;verticalAlign=top;verticalLabelPosition=bottom;labelBackgroundColor=#ffffff;imageAspect=0;aspect=fixed;image=https://cdn0.iconfinder.com/data/icons/phosphor-fill-vol-2/256/dots-three-outline-fill-128.png;rotation=90;fontFamily=Modern;fontSource=https%3A%2F%2Fsourceforge.net%2Fprojects%2Fcm-unicode%2F;" parent="1" vertex="1">
          <mxGeometry x="342" y="470" width="28" height="28" as="geometry" />
        </mxCell>
        <mxCell id="JSWtgp5aBdgA1HYlNqDZ-47" value="" style="verticalLabelPosition=bottom;shadow=0;dashed=0;align=center;html=1;verticalAlign=top;shape=mxgraph.electrical.radio.aerial_-_antenna_2;fontFamily=Modern;fontSource=https%3A%2F%2Fsourceforge.net%2Fprojects%2Fcm-unicode%2F;" parent="1" vertex="1">
          <mxGeometry x="510" y="370.5" width="20" height="35" as="geometry" />
        </mxCell>
        <mxCell id="JSWtgp5aBdgA1HYlNqDZ-49" value="" style="verticalLabelPosition=bottom;shadow=0;dashed=0;align=center;html=1;verticalAlign=top;shape=mxgraph.electrical.radio.aerial_-_antenna_2;fontFamily=Modern;fontSource=https%3A%2F%2Fsourceforge.net%2Fprojects%2Fcm-unicode%2F;" parent="1" vertex="1">
          <mxGeometry x="510" y="525.5" width="20" height="35" as="geometry" />
        </mxCell>
        <mxCell id="JSWtgp5aBdgA1HYlNqDZ-50" value="" style="verticalLabelPosition=bottom;shadow=0;dashed=0;align=center;html=1;verticalAlign=top;shape=mxgraph.electrical.radio.aerial_-_antenna_2;fontFamily=Modern;fontSource=https%3A%2F%2Fsourceforge.net%2Fprojects%2Fcm-unicode%2F;" parent="1" vertex="1">
          <mxGeometry x="510" y="280.5" width="20" height="35" as="geometry" />
        </mxCell>
        <mxCell id="JSWtgp5aBdgA1HYlNqDZ-60" value="Digital" style="text;html=1;align=center;verticalAlign=middle;resizable=0;points=[];autosize=1;strokeColor=none;fillColor=none;fontFamily=Modern;fontSource=https%3A%2F%2Fsourceforge.net%2Fprojects%2Fcm-unicode%2F;" parent="1" vertex="1">
          <mxGeometry x="195" y="210" width="60" height="30" as="geometry" />
        </mxCell>
        <mxCell id="JSWtgp5aBdgA1HYlNqDZ-61" value="Mixed &lt;br&gt;Signal" style="text;html=1;align=center;verticalAlign=middle;resizable=0;points=[];autosize=1;strokeColor=none;fillColor=none;fontFamily=Modern;fontSource=https%3A%2F%2Fsourceforge.net%2Fprojects%2Fcm-unicode%2F;" parent="1" vertex="1">
          <mxGeometry x="320" y="200" width="50" height="40" as="geometry" />
        </mxCell>
        <mxCell id="JSWtgp5aBdgA1HYlNqDZ-62" value="Analog" style="text;html=1;align=center;verticalAlign=middle;resizable=0;points=[];autosize=1;strokeColor=none;fillColor=none;fontFamily=Modern;fontSource=https%3A%2F%2Fsourceforge.net%2Fprojects%2Fcm-unicode%2F;" parent="1" vertex="1">
          <mxGeometry x="430" y="210" width="60" height="30" as="geometry" />
        </mxCell>
        <mxCell id="JSWtgp5aBdgA1HYlNqDZ-63" value="" style="shape=crossbar;whiteSpace=wrap;html=1;rounded=1;fontFamily=Modern;fontSource=https%3A%2F%2Fsourceforge.net%2Fprojects%2Fcm-unicode%2F;" parent="1" vertex="1">
          <mxGeometry x="150" y="230" width="150" height="20" as="geometry" />
        </mxCell>
        <mxCell id="JSWtgp5aBdgA1HYlNqDZ-66" value="" style="shape=crossbar;whiteSpace=wrap;html=1;rounded=1;fontFamily=Modern;fontSource=https%3A%2F%2Fsourceforge.net%2Fprojects%2Fcm-unicode%2F;" parent="1" vertex="1">
          <mxGeometry x="320" y="230" width="50" height="20" as="geometry" />
        </mxCell>
        <mxCell id="JSWtgp5aBdgA1HYlNqDZ-67" value="" style="shape=crossbar;whiteSpace=wrap;html=1;rounded=1;fontFamily=Modern;fontSource=https%3A%2F%2Fsourceforge.net%2Fprojects%2Fcm-unicode%2F;" parent="1" vertex="1">
          <mxGeometry x="390" y="230" width="150" height="20" as="geometry" />
        </mxCell>
      </root>
    </mxGraphModel>
  </diagram>
</mxfile>
